<?xml version="1.0" encoding="UTF-8"?><svg id="Layer_1" xmlns="http://www.w3.org/2000/svg" viewBox="0 0 450 436"><defs><style>.cls-1{fill:#e3e883;}.cls-2{fill:#006838;}</style></defs><path class="cls-1" d="M359.43,369.71c23.05-28.93,36.84-65.57,36.84-105.43,0-93.5-75.8-169.3-169.3-169.3S57.67,170.78,57.67,264.28c0,39.86,13.79,76.5,36.84,105.43h264.92Z"/><path class="cls-2" d="M89.83,366.71c-7.16-12.68-14.27-25.28-21.73-38.5h-23.35v-3.39h23.01c-12.57-34.71-14.09-69.65-4.83-105.25-2.68-.62-5.2-1.16-7.7-1.78-5.27-1.31-10.23-3.34-14.08-7.28-1.13-1.15-2-3.05-2.07-4.64-.24-5.83-.1-11.67-.1-18.35-2.2,1.75-3.78,3.01-5.45,4.34.53-3.86,1.06-7.66,1.64-11.88,2.4-2.81,5.08-5.95,7.58-8.89,0-2.81.18-5.35-.06-7.85-.2-2.11.61-3.48,1.83-5.13,5.39-7.27,12.48-11.47,21.39-12.72.39-.06.78-.21,1.39-.38,2.08.84,4.32,1.74,6.63,2.68,5.29-4.97,14.2-6.03,15.67-15.35-5.88-1.71-11.76-3.43-17.92-5.22-1.76-2.79-3.63-5.76-5.54-8.78,2.02-5.14,3.95-10.12,5.95-15.07.25-.62.77-1.2,1.3-1.63,4.47-3.63,8.98-7.21,13.64-10.94,2.88.63,5.82,1.27,9.01,1.97,4.88-3.36,9.86-6.79,14.96-10.31,1.19-7.48,5.38-12.56,12.48-15.4,4.35-1.74,8.34.39,12.5.67.79.05,1.58.28,3.1.57,5.06-12.32,16.54-17.92,27.01-24.66.2,0,.44-.05.57.04,7.37,5.19,15.29,4.22,23.43,2.37,5.6-1.27,11.33-1.95,17.23-2.93,2.5,2.25,5.04,4.53,7.73,6.96,3.3-.6,6.66-1.2,10.39-1.87v18.56c3.47-2.35,6.59-3.86,8.91-6.17,3.15-3.14,6.63-4.58,10.98-4.76,3.09-.12,6.16-.77,9.41-1.2.94,3.48,1.8,6.66,2.75,10.18,5.62-.83,11.09-1.55,16.54-2.45,6.87-1.13,10.21,2.15,9.35,9.2-.42,3.46-.55,6.95-.82,10.59,2.56.42,4.43.76,6.31,1.03,1.8.26,3.6.46,5.74.72,2.19-2.38,4.5-4.89,6.75-7.34,3.8,1.75,7.18,3.31,10.58,4.88,3.1-1.69,6.11-3.32,9.72-5.28,7.66,6.02,15.91,2.63,24.12.31,2.73,1.54,5.37,3.02,8.15,4.59v7.72c5.08,3.44,10.16,6.87,15.42,10.44-1.08,2.3-2.09,4.47-3.14,6.72.2.32.34.77.64.96,4.51,2.71,5.31,7.24,5.99,11.89.55,3.79,1.29,7.56,2.04,11.84,3.54-1.93,6.83-3.74,10.33-5.65,4.87,3.39,9.73,6.77,14.77,10.28-1.59,3.27-3.08,6.34-4.69,9.67,2.68,1.48,5.3,2.92,8.13,4.49,1.04,3.32,2.11,6.76,3.2,10.26-3.96,3.32-7.74,6.5-11.53,9.67-5.09-.75-10.08-1.49-15.44-2.28-1.97,2.12-4.07,4.38-6.67,7.19,1.7,0,2.79.2,3.77-.03,4.65-1.12,8.94-.01,13.27,1.65,4.89,1.89,9.91,3.46,15.06,5.23,2.87-1.17,5.84-2.38,9.02-3.68,2.58,2.18,5.18,4.39,8.1,6.87-3.66,1.95-7.07,3.77-10.57,5.63-1.13,3.56-2.25,7.1-3.5,11.04,3.41-.23,6.49-.43,9.69-.65,7.26,5.8.5,11.25-.53,16.94,3.16.6,6.22,1.17,9.41,1.77v8.69c-2.97,3.16-6.21,6.61-9.53,10.15-6.86-.56-13.69-1.12-20.6-1.69-.62.59-1.25,1.19-2,1.9,4.43,29.45,1.71,58.31-8.73,86.68h20v3.52h-20.31c-7.44,13.17-14.56,25.77-21.73,38.46h42.07c.09,1.27.16,2.21.25,3.36H44.79v-3.29h45.04ZM380.5,228.13c-1.08-5.94-2.1-11.48-3.12-17.12-4.98-1.51-9.76-2.97-15.12-4.6,1,2.5,1.76,4.4,2.49,6.22-3.36-1.08-6.67-2.13-9.22-2.95-1.9-.9-3.06-1.76-4.34-2.01-7.83-1.53-15.69-2.93-23.54-4.37-10.01-1.83-20.03-3.65-30.04-5.48.3-1.9-5.12-6.85-10.17-9.54-9.18,1.85-14.67,7.49-14.11,14.68,8.29,1.91,11.11-1.46,18.24-4.49.07.26,15.16,6.41,21.06,8.16,3.38,1.01,4.76,3.34,5.03,6.42.18,2.07-.33,4.2-.59,6.29-.37,3.05-.79,6.1-1.27,9.75-1.65.92-3.98,2.23-5.8,3.25-5.88-1.68-8.42-5.82-9.58-11.12h-7.92c-2.08-2.96-4.05-5.76-6.22-8.83-2.09-.34-4.37-1.18-6.55-.98-5.21.46-9.63,2.78-13.18,6.73-1.83,2.04-2.81,4.14-2.81,7.03.03,13.04-.19,26.07-.3,39.11,0,1.05.15,2.11.24,3.35h14.04c-.08,1.63-.14,2.98-.22,4.74h-14.09c0,2.34-.01,4.25,0,6.16.07,7.48-.08,14.97.29,22.44.27,5.41,3.28,7.71,8.67,7.34,1.81-.12,3.59-.56,5.38-.84.28-.04.58,0,1.03,0,.2.91.38,1.76.69,3.2-3.81,1.06-7.4,2.56-11.13,3.02-9.57,1.17-13.79-2.76-13.84-12.42-.04-7.69.05-15.37.08-23.06,0-1.89,0-3.78,0-5.84-2.77-.13-5.14-.24-7.82-.37.16-1.41.28-2.46.4-3.55,2.57-.3,4.92-.57,7.1-.82v-37.07c-22.63-14.48-48.58-17.74-74-23.16-5.46,5.89-10.81,11.66-16.1,17.37-.68,0-1.19.03-1.68,0-10.83-.81-21.07-3.73-30.64-8.88-4.94-2.66-10.16-3.96-15.76-3.47-4.82.43-9.63,1.04-14.55,1.58-3.42-2.41-6.87-4.84-10.23-7.21-.52.24-.82.32-1.07.49-4.76,3.24-9.52,6.5-14.28,9.74-2.79,1.9-5.34,4.51-9.37,2.71-9.63,35.86-7.96,70.66,4.9,104.88h310.61c11.17-29.4,13.76-59.46,8.33-90.18-3.45-2.19-6.68-4.25-9.92-6.3ZM358.04,366.67c7.89-9.02,21.51-32.73,21.9-38.23H73.37c2.57,8.95,15.41,30.92,22.32,38.23h262.35ZM222.47,192.7c3.41,13.03,21.12,25.9,32.07,23.62,1.59-5.36,1.5-13.31-.29-20.08-4.28-16.18-15.99-26.74-27.58-36.9-5.63-.26-10.78-.68-15.92-.7-12.22-.03-24.43.12-36.65.22-6.7.06-13.05,3.98-19.99,1.82-.56-.17-1.47.77-2.64,1.43,2.96,2.32,5.4,4.23,7.93,6.22,2.44-1.34,4.82-2.46,6.99-3.9,2.51-1.66,5.13-2,8.06-1.73,5.94.53,11.89.83,17.84,1.22,8.76.57,17.52,1.13,26.04,1.68,2.1,2.45,3.94,4.59,5.69,6.62,2.93.31,5.64.6,8.26.88,6.1,8.2,6.76,11.93,2.83,16.7-4.04.92-8.26,1.89-12.65,2.89ZM281.23,152.78c-19.71,4.53-28.82,33.65-16.22,49.59,3.84-8.95,7.85-18.08,11.69-27.29,2.93-7.03,4.92-14.3,4.54-22.3ZM154.11,188.15c2.73,1.75,5.12,3.45,7.67,4.86,1.25.7,2.8,1.22,4.21,1.23,15.37.09,30.74.06,46.1.04.81,0,1.61-.14,3.01-.28-4-3.8-7.49-7.11-10.53-10-11.05,2.36-21.48,4.6-32.14,6.87-2-2-4.2-4.21-6.58-6.59-3.49.3-7.08.6-10.79.92-.32.97-.59,1.81-.95,2.93ZM159.77,216.59c5.33-4.94,10.57-9.8,15.92-14.75-5.83-2.28-29.67-3.19-34.61-1.32,1.33,2.5,2.63,4.97,3.96,7.44,1.34,2.48,2.69,4.96,4.06,7.48,3.54.38,6.94.75,10.67,1.16ZM349.48,146.64c4.64,6.5,12.98,11.85,20.25,13.06.86.14,1.9.34,2.63,0,4.43-2.04,8.79-4.23,13.56-6.56-2.88-2.28-5.39-4.26-7.9-6.24-.08.31-.16.62-.24.94-7.43-1.78-14.87-3.56-22.3-5.34-2.08,1.44-4.03,2.79-5.99,4.15ZM365.04,119.59c1.45-2.23,1.66-4.39-.73-5.29-5.54-2.07-11.11-4.42-17.23-3.8-3.09.31-5.87,1.51-8.17,4.47,9.02,1.59,17.59,3.11,26.13,4.62ZM253.93,109.08c-4.85,2.33-9.59,4.6-14.82,7.11,5.43,2.88,10.34,5.48,15.79,8.37-.63-2.96-1.41-5.27-1.55-7.62-.14-2.43.34-4.9.59-7.86ZM323.58,142.51c-10.12-2.04-16.13,1.4-15.43,9.71,8.55-.47,15.26-4.92,15.43-9.71ZM331.09,189.96c-2.66.69-4.88,1.79-7.07,1.72-5.61-.18-11.21-.85-16.8-1.39-1.6-.15-3.18-.61-4.78-.76-1.49-.13-3-.03-4.5-.03,9.91,3.18,19.59,7.32,30.38,5.83.89-1.72,1.74-3.37,2.77-5.38ZM105.71,137.44c-4.52,1.62-8.74,3.13-13.51,4.84,3.33,2.61,6.28,4.92,9.49,7.43,1.49-1.59,2.79-2.97,4.03-4.3v-7.97ZM128.3,132.26c2.26,3.76,4.32,7.21,6.39,10.65.23-.06.46-.12.69-.18,1.01-4.99,2.02-9.98,3.15-15.6-3.82,1.91-6.91,3.47-10.24,5.13ZM253.68,172.55c2.37-5.51,4.74-11.02,7.41-17.21-7.57,4.89-9.73,9.77-7.41,17.21ZM201.93,133.09c-.06.29-.12.58-.18.87,8.89,1.79,17.77,3.58,26.82,5.4.3-1.05.51-1.78.79-2.78-9.3-1.18-18.37-2.34-27.44-3.49ZM84.05,149.6c-5.96,1.54-7.42,5.29-4.57,11.62.84.07,1.8.16,2.99.26.55-4.1,1.06-7.95,1.58-11.88ZM254.6,152.18c-3.92-2.09-7.07-3.76-10.28-5.47-.75.92-1.31,1.6-1.97,2.41,1.2,2.03,2.35,3.98,3.58,6.07,2.77-.96,5.3-1.84,8.67-3.01ZM336.04,198.29c3.24-.63,6.14-1.19,9.66-1.88-2.72-2.53-5-4.66-7.57-7.06-.79,2.8-1.46,5.08-2.08,7.37-.1.36-.01.76-.01,1.57ZM99.04,203.79c-.35-5.22-4.17-8.92-9.26-9.12.38,1.68.74,3.32,1.13,5.07,2.68,1.33,5.32,2.65,8.13,4.05ZM208.86,143.45c2.65,5.66,5.7,7.25,9.9,5.32-.66-4.28-2.77-5.44-9.9-5.32ZM186.74,90.87c-2.47,1.78-4.81,3.46-7.24,5.2,3.4,2.08,6.1,2.26,7.51.39,1.25-1.66,2.06-3.54-.27-5.59ZM139.16,211.18c.13-.36.26-.71.4-1.07-2.69-4.09-8.1-6.26-12.77-4.37,4.12,1.81,8.25,3.62,12.37,5.44ZM119.4,137.91c1.41,4.48,5.32,4.34,8.62,5.36-1.75-2.62-3.49-5.24-5.33-7.99-1.22.98-2.14,1.72-3.29,2.64ZM290.23,140.71v-2.74c.89-1.06,1.54-1.84,2.19-2.61-.2-.21-.39-.42-.59-.62-.98.07-1.97.14-3.06.21-.05.78-.08,1.42-.13,2.1-1.58.41-3.13.8-4.87,1.25.11.87.21,1.6.32,2.41h6.14ZM286.84,158.63c.49,1.08.98,2.14,1.42,3.1,4.47.09,6.35-2.15,6.62-7.87-1.43.86-2.67,1.62-3.91,2.37.12.95.22,1.72.4,3.11-1.47-.23-2.65-.41-4.53-.7ZM179.33,105.6c1.45,4.11,3.85,5.67,7.94,5.32-3.11-4.61-5.3-6.14-7.94-5.32ZM355.23,201.02c2.84-.36,5.32-.68,8.09-1.04-.19-1.12-.34-2.05-.54-3.22-2.83.56-5.34,1.06-8.04,1.6.18.97.29,1.61.48,2.66ZM276.84,134.4c.31-.15.62-.29.93-.44-.3-1.54-.6-3.07-.92-4.67h-6.82c2.77,2.07,4.79,3.59,6.81,5.11ZM235.26,119.78c.33-.18.65-.36.98-.54-.69-1.49-1.2-3.09-2.14-4.4-.39-.55-1.67-.48-2.54-.68-.16.31-.33.63-.49.94,1.4,1.56,2.79,3.12,4.19,4.68ZM254.95,142.96c.67.56,1.25,1.04,2.06,1.71,1.1-1.65,2.08-3.12,3.06-4.6q-1.89-1.09-5.12,2.89ZM370.17,201.57c2.43,1.24,4.45,2.28,6.88,3.53-.49-3.2-4.57-5.21-6.88-3.53ZM124.1,93.93c-3.5-3.56-3.62-3.61-5.21-1.91,1.1,1.23,2.2,2.46,3.42,3.83.76-.82,1.27-1.37,1.78-1.92ZM215.37,203.27c.15-.49.29-.99.44-1.48-2.39-.75-4.77-1.51-7.16-2.26-.13.42-.27.85-.4,1.27,2.37.82,4.75,1.65,7.12,2.47ZM170.04,151.13c-.14-.38-.27-.76-.41-1.14-2.3-.5-4.27-.14-5.16,2.99,1.86-.62,3.71-1.23,5.57-1.85ZM227.19,148.31c-.1.38-.2.77-.3,1.15,2.4.91,4.8,1.83,7.2,2.74.15-.4.29-.8.44-1.2-2.45-.9-4.9-1.8-7.34-2.7ZM266.18,142.97c.54.92.91,1.54,1.37,2.31,1.66-1.25,3.08-2.32,4.5-3.39-.1-.2-.2-.41-.3-.61-1.68.51-3.36,1.02-5.57,1.69ZM75.86,205.92c1.71-.38,3.17-.7,4.62-1.02-.04-.41-.07-.83-.11-1.24-1.44-.18-2.88-.36-4.51-.57v2.83ZM351.23,179.94c-1.36-2.14-2.97-2.07-5.76.38,1.82-.12,3.64-.24,5.76-.38ZM98.35,121.85c.35,1.74.61,2.99.86,4.24.37.02.75.04,1.12.06.31-1.29.63-2.57,1.01-4.14-1.09-.05-1.74-.09-2.99-.15ZM311.05,183.32c.01-.35.03-.69.04-1.04h-7.99c0,.22-.02.44-.03.65,2.66.13,5.32.26,7.98.39ZM350.68,190.8c.46-1.18.7-1.79,1.03-2.62-1.46-.41-2.73-.77-4.01-1.13-.21.34-.41.68-.62,1.02,1.07.82,2.14,1.63,3.6,2.73ZM239.78,135.97c1.36.13,2.77.25,4.18.38.06-.39.12-.79.19-1.18-1.27-.44-2.54-.88-3.8-1.31-.28.5-.45.74-.55,1.02-.06.17-.01.39-.01,1.09Z"/><path class="cls-2" d="M66.49,238.52c.25-1.41.38-2.16.54-3.02h28.92c.08.79.15,1.59.22,2.29-2.77.78-5.23,1.47-7.94,2.23.11,1.86-.08,3.32.31,4.6,5.52,17.95,11.13,35.87,16.91,54.42.61-1.24,1.02-1.95,1.32-2.7,4.44-11.06,8.91-22.1,13.23-33.21.53-1.36.55-3.15.18-4.57-.95-3.61-2.34-7.09-3.4-10.67-1.65-5.57-4.19-10.03-11.23-9.36v-2.98h29.04c.12.76.24,1.5.4,2.46-1.17.18-2.14.36-3.12.49-5.77.74-6.76,2.08-5.01,7.82,4.12,13.53,8.4,27,12.61,40.5,1.19,3.82,2.41,7.62,4.23,11.5,1.3-3.78,2.6-7.55,3.89-11.33,4.36-12.81,8.73-25.62,13.08-38.43.52-1.53.9-3.1,1.36-4.65.83-2.77-.36-4.29-3.04-4.78-1.97-.37-3.97-.62-6.16-.95v-2.64h26.69c.14.74.28,1.47.44,2.32-.75.22-1.31.5-1.87.52-5.32.2-8.63,3.06-10.4,7.87-4.64,12.61-9.26,25.22-13.82,37.85-3.19,8.83-6.26,17.71-9.4,26.56-.33.94-.76,1.84-1.19,2.87-1.6.09-3.08.18-4.76.28-4.99-14.93-9.93-29.72-14.87-44.51-.25-.04-.5-.07-.76-.11-5.79,14.68-11.57,29.36-17.45,44.27-1.39.12-2.87.25-4.6.39-2.21-6.72-4.34-13.33-6.54-19.91-4.92-14.76-9.98-29.47-14.75-44.28-2.05-6.37-4.37-12.02-13.06-11.12Z"/><path class="cls-2" d="M349.21,309.71c-.14,1.03-.25,1.79-.38,2.73h-24.22c-.09-.68-.19-1.41-.27-2.03.36-.24.51-.42.69-.46,6.97-1.68,7.47-2.28,7.52-9.65.04-6.37,0-12.74.01-19.11q0-7.48-7.25-9.61c-.08-.57-.18-1.23-.3-2.06,5.53-1.49,10.93-2.95,16.81-4.53-.13,2.48-.24,4.5-.37,6.93,1.84-1.13,3.26-2.32,4.9-2.94,3.74-1.42,7.52-3.25,11.42-3.69,9.69-1.1,15.63,4.44,15.85,14.21.14,5.96.03,11.93.03,17.89,0,1.31,0,2.63,0,3.94.02,7.12.23,7.36,7.5,8.33v2.74h-23.55c-.13-.59-.28-1.31-.48-2.24,1.06-.24,1.92-.51,2.79-.63,2.94-.38,4.62-1.95,4.63-4.98.03-7.88.29-15.77-.08-23.63-.31-6.52-4.91-10.24-11.3-9.14-4.07.7-7.94,2.54-11.73,3.81,0,10.35,0,19.85,0,29.35,0,2.54,1.32,3.91,3.82,4.21,1.19.14,2.38.33,3.96.55Z"/><path class="cls-2" d="M302.67,265.1c13.95.06,24.12,10.3,24.04,24.23-.07,14-10.97,24.98-24.74,24.94-13.89-.05-24.21-10.48-24.02-24.28.19-14.22,10.84-24.95,24.72-24.89ZM316.53,291.22s-.09-.23,0,0c-.03-5.97-.96-11.45-4.54-16.4-5.85-8.08-16.49-7.58-21.27.93-4.64,8.26-3.2,22.64,2.97,29.81,5.95,6.91,15.75,6.16,19.96-1.92,1.9-3.64,2.88-8.85,2.88-12.42Z"/><path class="cls-2" d="M198.68,286.12h-30.78c-1.45,5.85,2.31,14.26,7.72,17.87,6.52,4.36,13.54,3.59,21.92-2.51.68.6,1.41,1.24,2.1,1.85-6.59,12.19-23.99,14.63-33.92,4.71-6.89-6.88-8.69-15.49-6.22-24.66,2.45-9.09,8.34-15.4,17.71-17.78,10.23-2.6,20.23,2.99,22.45,12.33.79,3.33.57,5.73-.97,8.19ZM168,281.95h21.73c1.47-6.15-2.23-11.54-8.2-12.43-6.62-.99-12.86,4.72-13.54,12.43Z"/><path class="cls-2" d="M239.69,266.69v13.53h-2.52c-.74-1.87-1.25-3.75-2.19-5.39-2.72-4.77-8.88-7.08-13.57-5.27-4.95,1.91-6.25,7.7-2.31,11.25,1.75,1.58,4.04,2.63,6.19,3.7,3.61,1.79,7.53,3.05,10.92,5.17,8.11,5.05,8.13,15.8.15,21.15-5.93,3.98-12.55,4.01-19.28,2.71-2.57-.5-5.12-1.14-7.95-1.78-.57-4.81-1.15-9.69-1.76-14.79.76-.27,1.57-.54,2.48-.86.33.59.54,1.04.81,1.45,2.26,3.3,4.23,6.85,6.88,9.8,2.4,2.68,5.98,3.23,9.55,2.81,2.78-.33,5.13-1.5,6.08-4.3.95-2.78.57-5.62-1.76-7.5-2.24-1.81-4.87-3.18-7.44-4.54-2.94-1.55-6.18-2.59-8.97-4.36-8.75-5.54-8.09-17.29,1.12-22.13,4.78-2.51,9.91-2.56,15.09-1.96,2.8.32,5.58.86,8.48,1.32Z"/><path class="cls-2" d="M288.64,340.07c-.16.81-.28,1.45-.45,2.32-3.03,0-6.45-1.22-9.12.56-1.78,1.78-1.12,5.49-.89,8.03.4,4.48,2.65,5.26,7.39,3.89v-3.93c-1.23-.36-2.31-.68-3.39-1,.03-.24.06-.47.1-.71h7.16c0,2.13,0,4.39,0,6.65-4.8,2.37-10.36,2.22-12.81-.33-2.36-2.47-2.91-8.48-1.07-11.74,2.09-3.71,6.59-5.07,13.09-3.73Z"/><path class="cls-2" d="M245.57,351.56c-2.11,1.64-.94,5.52-5.11,5.79,2.4-6.04,4.62-11.63,6.89-17.34,1.1-.26,2.16-.51,3.62-.85,2.14,5.92,4.25,11.75,6.51,18.02-1.45.08-2.49.13-3.76.2-.8-1.97-1.59-3.89-2.37-5.81h-5.78ZM245.84,349.38h4.91c-.78-2.19-1.47-4.12-2.41-6.76-.97,2.62-1.67,4.51-2.51,6.76Z"/><path class="cls-2" d="M309.47,357.43v-17.45h10.55c-1.91,2.84-4.6.94-6.6,2.14v4.78c1.83.24,3.69.48,5.55.72,0,.34,0,.69,0,1.03-1.75.23-3.49.46-5.51.72v5.63c2.18.23,4.39.47,6.6.71,0,.32,0,.64,0,.96-3.32,1.5-6.87.24-10.58.77Z"/><path class="cls-2" d="M126.32,339.9h4.03c1.63,4.6,3.26,9.22,5.09,14.39,1.8-5.05,3.43-9.59,5.1-14.29.66-.04,1.31-.09,2.4-.16-2.2,5.96-4.27,11.59-6.39,17.33h-3.74c-2.08-5.52-4.2-11.16-6.5-17.26Z"/><path class="cls-2" d="M213.88,339.93h3.41v15.13c2.32.16,4.29.3,6.27.44-.46,2.09-2.76,2.45-9.68,1.58v-17.15Z"/><path class="cls-2" d="M184.88,339.85h3.47v15.22c2.43.17,4.47.32,6.5.46.02.4.03.81.05,1.21-3.14,1.32-6.53.33-10.01.54v-17.43Z"/><path class="cls-2" d="M161.3,339.9h3.14v17.21c-.94.08-1.89.17-3.14.28v-17.49Z"/></svg>