<?xml version="1.0" encoding="UTF-8"?><svg id="Layer_1" xmlns="http://www.w3.org/2000/svg" viewBox="0 0 465 350"><defs><style>.cls-1{fill:#006838;}</style></defs><path class="cls-1" d="M450.08,205.47c1.19-6.6,9.03-12.93.61-19.66-3.71.25-7.28.49-11.25.75,1.45-4.56,2.75-8.68,4.06-12.81,4.06-2.16,8.02-4.27,12.27-6.54-3.39-2.87-6.41-5.44-9.4-7.97-3.69,1.5-7.14,2.91-10.47,4.27-5.99-2.06-11.8-3.88-17.48-6.07-5.02-1.94-10-3.22-15.4-1.92-1.14.27-2.4.04-4.37.04,3.02-3.26,5.46-5.88,7.74-8.34,6.22.92,12.01,1.78,17.91,2.65,4.4-3.69,8.78-7.37,13.38-11.23-1.26-4.06-2.51-8.05-3.71-11.91-3.29-1.81-6.33-3.49-9.44-5.21,1.87-3.86,3.6-7.42,5.44-11.22-5.85-4.07-11.5-8-17.15-11.93-4.05,2.22-7.88,4.31-11.98,6.55-.86-4.97-1.72-9.34-2.36-13.74-.79-5.4-1.72-10.65-6.95-13.8-.35-.21-.5-.74-.74-1.11,1.22-2.62,2.4-5.13,3.65-7.8-6.11-4.14-12-8.12-17.9-12.11,0-6.78-1.08-13.66-10.03-13.88-1.22-.03-2.42.34-3.59.7-6.73,2.09-14.4,3.99-20.51.48-.83-.47-1.62-1.05-2.55-1.27-3.08-.75-5.54,2.44-8.4,3.8-5.95,2.83-8.77-2.6-13.81-3.25-4.46-.58-6.87,8.13-9.97,7.74-2.48-.31-4.58-.54-6.66-.84-2.18-.32-4.34-.71-7.32-1.2.36-4.81,1.81-10.39,1.25-15.14-.4-3.33-2.38-6.7-5.57-7.73-1.91-.61-3.97-.33-5.95-.05-6.23.9-12.45,1.8-18.68,2.7-1.14-3.8-2.28-7.6-3.41-11.4-12.48-.25-24.97,4.84-33.72,13.74-.11-7.19-.23-14.39-.34-21.58-4.33,1.43-9.29,2.8-13.23.52-1.42-.82-2.56-2.06-3.89-3.03-7.23-5.31-16.17-1.62-23.88.13-9.2,2.08-18.96,2.9-27.08-2.81-.16-.11-.44-.04-.67-.05-12.15,7.83-25.48,14.32-31.35,28.62-1.76-.33-2.67-.6-3.59-.66-4.82-.33-9.45-2.8-14.51-.78-8.25,3.29-13.11,9.18-14.48,17.87-5.92,4.08-11.71,8.06-17.37,11.96-3.7-.81-7.11-1.56-10.45-2.29-5.41,4.33-10.64,8.49-15.83,12.7-.62.5-1.22,1.17-1.51,1.89-2.32,5.75-4.56,11.53-6.9,17.49,2.21,3.51,4.38,6.95,6.42,10.19,7.15,2.08,13.97,4.07,20.8,6.06-1.71,10.82-12.04,12.05-18.18,17.82-2.68-1.08-5.27-2.13-7.69-3.11-.71.2-1.15.38-1.61.44-10.34,1.45-18.56,6.32-24.82,14.76-4.37,5.9.26,12.93-4.62,18.96-4.73,5.83-8.83,11.31-7.43,19.21,1.92-.98,3.7-2.3,5.52-3.52-.25,7.78-.3,14.96.66,22.64,2.04,7.13,11.94,10.41,18.28,11.99,2.9.72,5.82,1.35,8.94,2.07,0,.02-.01.05-.02.07,1.37-.12,2.82.17,4.05.88.07-.26.13-.51.2-.77,4.68,2.1,7.64-.94,10.87-3.14,5.53-3.76,11.05-7.54,16.57-11.3.28-.19.63-.29,1.24-.57,3.9,2.75,7.91,5.57,11.87,8.37,5.71-.63,11.29-1.34,16.88-1.84,6.49-.58,12.55.94,18.29,4.02,11.11,5.98,22.98,9.37,35.55,10.31.58.04,1.16,0,1.95,0,6.14-6.63,12.35-13.32,18.69-20.16,29.51,6.29,59.62,10.07,85.88,26.87v43.02c-2.52.29-5.25.6-8.24.95-.14,1.26-.28,2.48-.47,4.11,3.11.15,5.86.28,9.08.43,0,2.39,0,4.58,0,6.77-.04,8.92-.14,17.84-.1,26.76.05,11.21,4.95,15.77,16.06,14.41,4.32-.53,8.5-2.27,12.92-3.5-.36-1.67-.57-2.65-.8-3.71-.53,0-.87-.04-1.2,0-2.08.32-4.15.82-6.25.97-6.25.43-9.75-2.25-10.06-8.52-.43-8.67-.26-17.36-.34-26.04-.02-2.21,0-4.42,0-7.14h16.36c.09-2.05.17-3.61.25-5.5h-16.3c-.11-1.44-.29-2.66-.28-3.89.13-15.13.39-30.26.35-45.39,0-3.36,1.13-5.8,3.26-8.16,4.12-4.59,9.26-7.27,15.3-7.81,2.54-.23,5.19.74,7.61,1.14,2.51,3.57,4.8,6.82,7.21,10.25h9.19c1.34,6.14,4.28,10.95,11.11,12.9,2.11-1.18,4.82-2.7,6.73-3.77.56-4.25,1.04-7.78,1.47-11.32.3-2.43.88-4.9.68-7.3-.3-3.57-1.9-6.28-5.83-7.45-6.85-2.04-24.36-9.17-24.44-9.47-8.27,3.52-11.54,7.43-21.16,5.22-.65-8.34,5.72-14.89,16.38-17.04,5.87,3.12,12.15,8.88,11.8,11.07,11.62,2.12,23.24,4.23,34.86,6.36,9.11,1.67,18.23,3.29,27.32,5.07,1.49.29,2.84,1.29,5.04,2.34,2.96.95,6.8,2.17,10.7,3.42-.84-2.11-1.73-4.31-2.89-7.22,6.23,1.89,11.77,3.58,17.55,5.33,1.19,6.55,2.37,12.98,3.63,19.87,1.12,6.13,14.87,8.9,19.87,9.78,4.01.71,19.4,4.9,22.69,1.4,3.85-4.1,7.61-8.11,11.06-11.78v-10.08c-3.7-.7-7.25-1.36-10.92-2.05ZM53.83,192.43v-3.28c1.89.24,3.56.45,5.24.66.04.48.08.96.12,1.44-1.69.37-3.37.75-5.36,1.19ZM61.5,140.85c-1.38-.12-2.49-.22-3.47-.3-3.3-7.35-1.61-11.7,5.3-13.49-.61,4.57-1.2,9.03-1.84,13.79ZM83.39,95.04c-.45,1.82-.81,3.32-1.18,4.81-.43-.02-.87-.05-1.3-.07-.29-1.45-.59-2.9-1-4.92,1.46.07,2.21.11,3.47.17ZM71.29,185.25c-.45-2.03-.88-3.93-1.31-5.88,5.91.23,10.35,4.52,10.75,10.58-3.27-1.63-6.33-3.15-9.44-4.7ZM88.47,122.21c-1.44,1.54-2.94,3.14-4.67,4.99-3.72-2.91-7.15-5.6-11.01-8.62,5.54-1.98,10.43-3.74,15.68-5.62v9.25ZM287.09,103.5c.36,1.85.71,3.64,1.07,5.42-.36.17-.72.34-1.08.51-2.35-1.76-4.7-3.52-7.91-5.93h7.92ZM281.16,117.4c.12.24.23.48.35.71-1.65,1.24-3.3,2.48-5.22,3.93-.53-.89-.96-1.61-1.59-2.68,2.56-.78,4.51-1.37,6.46-1.97ZM267.61,116.01c-1.14,1.72-2.28,3.42-3.55,5.34-.93-.78-1.6-1.34-2.39-1.99q3.75-4.62,5.94-3.35ZM260.49,80.04c-.29,3.43-.85,6.3-.68,9.12.16,2.73,1.07,5.41,1.8,8.85-6.32-3.35-12.03-6.38-18.32-9.72,6.07-2.91,11.57-5.55,17.2-8.25ZM249.33,123.71c3.73,1.98,7.38,3.93,11.93,6.35-3.92,1.36-6.85,2.38-10.06,3.49-1.43-2.42-2.77-4.69-4.16-7.05.76-.93,1.41-1.73,2.29-2.8ZM244.06,111.25c0-.82-.06-1.07.01-1.27.12-.32.32-.6.64-1.18,1.46.51,2.94,1.02,4.41,1.52-.07.46-.14.91-.22,1.37-1.63-.15-3.27-.3-4.85-.45ZM234.53,85.92c1.01.24,2.49.15,2.95.79,1.08,1.52,1.68,3.38,2.48,5.11-.38.21-.76.42-1.14.63-1.62-1.81-3.24-3.62-4.87-5.44.19-.36.38-.73.57-1.09ZM237.98,128.7c-.17.46-.34.93-.51,1.39-2.79-1.06-5.57-2.12-8.36-3.18.12-.45.23-.89.35-1.34,2.84,1.04,5.68,2.09,8.52,3.13ZM200.14,107.9c10.52,1.34,21.05,2.68,31.84,4.05-.33,1.16-.57,2-.92,3.22-10.51-2.12-20.82-4.19-31.13-6.27l.21-1.01ZM219.68,126.1c-4.88,2.24-8.42.39-11.49-6.17,8.28-.14,10.73,1.21,11.49,6.17ZM182.51,58.9c2.7,2.38,1.77,4.56.32,6.49-1.64,2.17-4.76,1.96-8.72-.45,2.81-2.02,5.53-3.97,8.4-6.03ZM183.12,82.18c-4.75.41-7.54-1.41-9.22-6.18,3.07-.94,5.61.82,9.22,6.18ZM162.65,127.51c.16.44.32.89.48,1.33-2.15.72-4.31,1.43-6.46,2.15,1.04-3.63,3.32-4.05,5.99-3.47ZM126.56,100.99c-1.32,6.52-2.49,12.31-3.66,18.11-.27.07-.54.14-.81.21-2.4-4-4.79-7.99-7.42-12.36,3.85-1.93,7.45-3.74,11.88-5.96ZM109.8,62.46c-.59.64-1.19,1.28-2.07,2.23-1.42-1.59-2.7-3.02-3.97-4.45,1.84-1.97,1.98-1.92,6.04,2.22ZM104.36,113.49c1.33-1.07,2.41-1.93,3.82-3.06,2.13,3.19,4.15,6.23,6.18,9.28-3.82-1.18-8.37-1.01-10-6.22ZM127.29,198.54c-4.79-2.1-9.57-4.21-14.36-6.31,5.42-2.2,11.69.33,14.82,5.07-.15.41-.31.83-.46,1.24ZM151.21,204.81c-4.33-.47-8.28-.9-12.39-1.34-1.59-2.93-3.17-5.8-4.71-8.68-1.54-2.86-3.05-5.73-4.59-8.63,5.73-2.16,33.4-1.1,40.17,1.54-6.21,5.75-12.28,11.39-18.47,17.12ZM158.43,178.87c-1.64,0-3.43-.62-4.89-1.43-2.96-1.64-5.73-3.61-8.9-5.64.42-1.3.74-2.27,1.11-3.4,5.56-.47,12.12-2.6,16.34,2.37,1.2,1.41,2.16,3.29,3.96,3.77.95.25,1.96.04,2.92-.16,10.37-2.25,20.73-4.5,31.1-6.75,1.11-.24,2.3-.48,3.37-.07.73.28,1.32.84,1.88,1.38,3.06,2.94,7.07,5.9,9.29,9.42-.84.54-1.67.58-2.67.58-17.84.02-35.67.05-53.51-.05ZM215.73,189.36c-2.75-.96-5.51-1.91-8.26-2.87.15-.49.31-.98.46-1.48l8.31,2.62c-.17.57-.34,1.15-.51,1.72ZM261.19,204.5c-12.7,2.64-33.27-12.3-37.22-27.42,5.1-1.16,10-2.28,14.68-3.35,4.55-5.53,3.79-9.86-3.29-19.38-3.05-.32-6.19-.66-9.59-1.02-2.03-2.36-4.16-4.85-6.6-7.69-9.88-.64-20.05-1.29-30.22-1.95-6.9-.45-13.82-.79-20.71-1.41-3.4-.31-6.44.08-9.35,2.01-2.52,1.67-5.28,2.97-8.12,4.53-2.95-2.31-5.78-4.53-9.21-7.22,1.36-.77,2.41-1.86,3.07-1.66,8.06,2.5,15.42-2.05,23.2-2.12,14.18-.12,28.36-.29,42.54-.26,5.97.02,11.94.51,18.48.81,13.45,11.79,27.03,24.05,32,42.83,2.08,7.85,2.18,17.08.33,23.3ZM260.19,153.7c-2.69-8.63-.19-14.29,8.6-19.97-3.09,7.18-5.84,13.58-8.6,19.97ZM286.9,156.64c-4.46,10.69-9.11,21.29-13.56,31.67.22-.51-6.09-13.38-6.4-15.74-.81-6.13-.02-12.29,1.84-18.16,2.66-8.39,12.85-24.38,23.25-23.06,1.24,8.32-1.96,17.7-5.12,25.29ZM295.12,113.94c2.02-.52,3.82-.98,5.65-1.45.05-.79.09-1.53.15-2.44,1.26-.09,2.4-.17,3.55-.25.23.24.46.48.68.72-.75.9-1.51,1.8-2.54,3.03v3.18h-7.12c-.12-.94-.24-1.79-.37-2.8ZM300.32,141.14c-.51-1.1-1.07-2.34-1.64-3.59,2.18.34,3.55.55,5.26.82-.21-1.62-.33-2.51-.47-3.61,1.43-.87,2.88-1.74,4.54-2.75-.31,6.64-2.49,9.24-7.68,9.13ZM341.31,118.84c-.2,5.56-7.98,10.73-17.91,11.27-.81-9.65,6.16-13.64,17.91-11.27ZM317.54,165h9.28c-.01.4-.03.8-.04,1.21-3.09-.15-6.18-.3-9.26-.45,0-.25.02-.51.03-.76ZM346.81,180.15c-12.53,1.74-23.75-3.07-35.26-6.76,1.74,0,3.5-.12,5.22.03,1.86.17,3.69.7,5.55.88,6.49.62,12.99,1.4,19.5,1.61,2.54.08,5.12-1.2,8.2-2-1.2,2.32-2.19,4.24-3.22,6.24ZM368.59,81.69c7.1-.71,13.57,2.01,20,4.41,2.78,1.04,2.53,3.55.85,6.14-9.91-1.75-19.86-3.51-30.33-5.36,2.67-3.43,5.89-4.82,9.48-5.18ZM373.4,162.28c-2.45.16-4.56.3-6.68.44,3.24-2.84,5.11-2.92,6.68-.44ZM355.77,183.58c0-.94-.1-1.41.02-1.82.72-2.66,1.49-5.3,2.41-8.55,2.99,2.78,5.63,5.25,8.79,8.19-4.09.8-7.46,1.45-11.22,2.18ZM372.76,174.89c-1.68-1.28-2.93-2.23-4.17-3.17.24-.39.48-.79.72-1.18,1.48.42,2.96.83,4.65,1.31-.38.97-.66,1.67-1.2,3.05ZM378.05,186.75c-.22-1.21-.36-1.96-.56-3.09,3.13-.62,6.05-1.2,9.33-1.86.23,1.36.4,2.43.62,3.74-3.22.41-6.09.78-9.39,1.2ZM371.38,123.63c2.27-1.57,4.54-3.14,6.95-4.81,8.63,2.07,17.25,4.13,25.88,6.2.09-.36.19-.72.28-1.09,2.91,2.3,5.83,4.6,9.17,7.24-5.54,2.7-10.6,5.25-15.74,7.62-.84.39-2.05.16-3.05,0-8.43-1.41-18.11-7.62-23.5-15.16ZM395.39,187.38c2.68-1.95,7.41.38,7.98,4.09-2.81-1.44-5.17-2.65-7.98-4.09Z"/><path class="cls-1" d="M42.95,230.26c.29-1.63.45-2.51.62-3.51h33.57c.09.92.18,1.85.25,2.65-3.21.9-6.07,1.7-9.22,2.59.13,2.16-.1,3.85.36,5.34,6.41,20.83,12.91,41.63,19.62,63.15.71-1.44,1.18-2.26,1.53-3.13,5.15-12.83,10.35-25.65,15.36-38.54.61-1.58.64-3.65.21-5.31-1.1-4.18-2.71-8.23-3.95-12.39-1.92-6.46-4.86-11.64-13.03-10.86v-3.45h33.71c.14.88.28,1.74.46,2.86-1.35.21-2.48.42-3.62.57-6.69.86-7.84,2.42-5.81,9.08,4.78,15.7,9.74,31.34,14.64,47,1.38,4.43,2.8,8.85,4.91,13.34,1.5-4.38,3.01-8.77,4.51-13.15,5.07-14.87,10.13-29.73,15.18-44.6.6-1.77,1.04-3.6,1.58-5.4.96-3.22-.41-4.97-3.53-5.55-2.29-.43-4.61-.72-7.15-1.11v-3.06h30.98c.16.86.32,1.7.51,2.69-.87.25-1.52.58-2.18.61-6.17.23-10.01,3.55-12.06,9.14-5.38,14.63-10.74,29.27-16.03,43.93-3.7,10.25-7.26,20.55-10.91,30.83-.39,1.09-.88,2.14-1.38,3.33-1.85.11-3.58.21-5.53.33-5.79-17.33-11.52-34.5-17.26-51.66-.29-.04-.58-.08-.88-.13-6.72,17.03-13.43,34.07-20.26,51.38-1.61.14-3.33.29-5.34.46-2.56-7.8-5.04-15.47-7.59-23.11-5.71-17.13-11.58-34.21-17.12-51.39-2.38-7.39-5.07-13.95-15.16-12.91Z"/><path class="cls-1" d="M373.14,312.88c-.16,1.19-.29,2.08-.44,3.17h-28.11c-.11-.79-.22-1.63-.32-2.35.41-.28.59-.48.8-.53,8.09-1.96,8.67-2.64,8.72-11.19.05-7.39,0-14.78.01-22.18q0-8.68-8.42-11.15c-.1-.67-.21-1.42-.35-2.4,6.42-1.73,12.68-3.42,19.51-5.26-.15,2.87-.28,5.22-.43,8.05,2.14-1.31,3.79-2.69,5.69-3.42,4.35-1.65,8.73-3.77,13.25-4.28,11.25-1.28,18.13,5.15,18.4,16.49.16,6.92.03,13.84.04,20.77,0,1.53,0,3.05,0,4.58.02,8.27.27,8.54,8.7,9.66v3.19h-27.33c-.15-.69-.32-1.52-.55-2.6,1.24-.28,2.22-.6,3.23-.73,3.42-.44,5.36-2.26,5.37-5.78.03-9.14.34-18.31-.09-27.43-.36-7.57-5.7-11.88-13.11-10.6-4.72.81-9.21,2.94-13.62,4.42,0,12.02,0,23.04,0,34.06,0,2.95,1.53,4.54,4.44,4.89,1.39.16,2.76.38,4.6.64Z"/><path class="cls-1" d="M317.05,261.11c16.19.07,27.99,11.96,27.9,28.12-.09,16.25-12.73,28.99-28.71,28.94-16.12-.05-28.1-12.16-27.88-28.17.22-16.51,12.58-28.96,28.69-28.89ZM333.13,291.43s-.11-.27,0,0c-.03-6.92-1.12-13.29-5.27-19.03-6.79-9.38-19.13-8.8-24.68,1.08-5.38,9.59-3.72,26.27,3.45,34.59,6.9,8.02,18.28,7.15,23.16-2.23,2.2-4.23,3.34-10.27,3.34-14.41Z"/><path class="cls-1" d="M198.4,284.5h-35.73c-1.68,6.78,2.68,16.55,8.95,20.74,7.57,5.06,15.71,4.17,25.44-2.91.79.7,1.63,1.44,2.43,2.15-7.65,14.15-27.84,16.98-39.37,5.46-7.99-7.98-10.09-17.97-7.22-28.62,2.84-10.55,9.68-17.87,20.56-20.63,11.87-3.01,23.48,3.47,26.06,14.31.92,3.86.66,6.65-1.13,9.5ZM162.8,279.67h25.22c1.7-7.14-2.58-13.39-9.51-14.43-7.68-1.14-14.92,5.48-15.71,14.43Z"/><path class="cls-1" d="M243.96,262.95v15.71h-2.93c-.86-2.17-1.45-4.36-2.54-6.26-3.15-5.53-10.3-8.22-15.75-6.11-5.74,2.22-7.25,8.93-2.68,13.05,2.04,1.83,4.68,3.05,7.18,4.29,4.19,2.08,8.74,3.54,12.68,6,9.42,5.86,9.44,18.33.18,24.55-6.89,4.62-14.57,4.65-22.37,3.15-2.99-.58-5.94-1.32-9.23-2.07-.66-5.58-1.34-11.24-2.04-17.17.89-.31,1.82-.63,2.87-1,.38.69.62,1.21.94,1.68,2.62,3.83,4.91,7.95,7.99,11.38,2.79,3.11,6.94,3.75,11.08,3.26,3.23-.38,5.95-1.75,7.06-4.99,1.1-3.23.66-6.52-2.05-8.7-2.6-2.1-5.65-3.69-8.63-5.26-3.41-1.8-7.17-3.01-10.41-5.06-10.15-6.43-9.38-20.07,1.3-25.69,5.55-2.92,11.5-2.97,17.51-2.28,3.25.37,6.47,1,9.84,1.53Z"/><path class="cls-1" d="M110.43,330.38c.1.02.21.04.32.06h.26c.09-.02.19-.04.28-.06s.19-.04.28-.06l.94-.02,5.12,12.29c.11-.17.21-.36.32-.57.1-.21.21-.44.32-.69.22-.48.44-.99.67-1.51.23-.52.46-1.07.69-1.65.08-.19.15-.38.22-.57.07-.19.14-.39.22-.6.03-.09.07-.19.11-.28.04-.09.08-.2.13-.3.03-.09.07-.19.11-.29.04-.1.07-.2.11-.29.19-.5.37-.99.55-1.46.18-.48.35-.96.5-1.44.17-.47.33-.92.48-1.36.15-.44.28-.85.41-1.24l.94-.02s.09.05.14.07.1.03.16.05h.07s.03.02.04.02h.04s.07,0,.1-.01.08-.02.13-.04c.03-.02.07-.03.11-.04.04,0,.07-.02.1-.04l.94-.02-6.81,16.01h-.98s-.02,0-.02-.02c-.02,0-.03,0-.05-.01-.02,0-.03-.01-.05-.01-.03-.02-.07-.03-.1-.04-.04,0-.07-.01-.11-.01l.94-.02s-.04.02-.06.02-.04,0-.06.02c-.03,0-.05,0-.07.01s-.04.01-.07.01c-.05.02-.09.03-.14.04s-.09.01-.14.01h-.94l-7.37-16.03h.94c.11.05.21.08.32.11Z"/><path class="cls-1" d="M154.96,330.19c.07.02.15.04.25.06h.14c.09-.01.18-.04.27-.06.09-.02.16-.04.22-.06l.94-.02v16.19h-.94c-.06,0-.14,0-.22-.01-.09,0-.17-.02-.25-.04h-.16c-.09.02-.18.03-.25.04s-.14.01-.22.01h-.94v-16.22h.94c.08.05.15.08.22.1Z"/><path class="cls-1" d="M187.24,330.08h.94c.06.05.13.08.21.1.08.02.16.04.26.06h.21c.08-.01.15-.04.22-.06.07-.02.13-.04.18-.06l.94-.02v14.91c.11.03.23.05.35.07.12.02.26.02.4.02.12.02.25.02.37.02h.61c.06,0,.12,0,.19-.02h.4c.31-.02.62-.03.91-.05l.89-.05c.28-.03.54-.06.77-.08.23-.02.44-.04.63-.06l.94-.02c-.02.06-.03.12-.05.16-.02.05-.02.09-.02.14-.02.05-.02.09-.02.14v.37s0,.09.01.13c0,.04.02.07.04.11v.06s0,.05.02.08v.12l.02.14h-9.41v-16.22Z"/><path class="cls-1" d="M226.17,330.08h.94c.06.05.13.08.21.1.08.02.16.04.26.06h.21c.08-.01.15-.04.22-.06.07-.02.13-.04.18-.06l.94-.02v14.91c.11.03.23.05.35.07.12.02.26.02.4.02.12.02.25.02.37.02h.61c.06,0,.12,0,.19-.02h.4c.31-.02.62-.03.91-.05l.89-.05c.28-.03.54-.06.77-.08.23-.02.44-.04.63-.06l.94-.02c-.02.06-.03.12-.05.16-.02.05-.02.09-.02.14-.02.05-.02.09-.02.14v.37s0,.09.01.13c0,.04.02.07.04.11v.06s0,.05.02.08v.12l.02.14h-9.41v-16.22Z"/><path class="cls-1" d="M270.63,329.9h1.47l7.21,16.4h-1.74s-.07,0-.11-.02h-.21s-.07.02-.11.02h-1.37l-2.57-6.46h-4.77l-2.39,6.46h-1.15l-.12-.02s-.04.02-.07.02h-1.45l7.37-16.4ZM272.83,338.74l-1.92-4.59-1.92,4.59h3.84Z"/><path class="cls-1" d="M307.71,335.14c.3-.92.73-1.68,1.28-2.27.55-.59,1.12-1.09,1.72-1.5.6-.41,1.23-.72,1.88-.94.34-.12.68-.23,1.02-.3.33-.08.67-.14.99-.19s.64-.09.95-.12.58-.05.83-.07l.94-.02c.5.02,1,.05,1.51.11.51.05,1.02.14,1.53.25.5.11,1,.26,1.51.46.51.2,1.02.42,1.53.69l-.75,1.99h-.94c-.08-.03-.16-.08-.26-.15s-.19-.15-.28-.25-.19-.19-.29-.28c-.1-.09-.21-.19-.34-.28-.22-.17-.47-.33-.75-.49s-.58-.3-.91-.44c-.27-.12-.57-.22-.9-.29s-.7-.11-1.09-.13c-.08,0-.16,0-.25.01-.09,0-.18.02-.27.04-.16.02-.32.04-.48.07-.16.03-.33.07-.5.12-.58.16-1.13.4-1.67.74-.54.33-1.06.76-1.56,1.28-.48.51-.87,1.15-1.15,1.89-.28.75-.46,1.63-.54,2.64v.35c-.02,1.15.13,2.2.44,3.13.31.94.78,1.76,1.4,2.48.59.67,1.27,1.18,2.02,1.53.76.35,1.6.55,2.54.6.31-.02.61-.04.9-.08.29-.04.57-.09.85-.15.36-.08.67-.17.92-.29s.48-.25.67-.39v-6.13h.94s.06.05.09.06c.03,0,.07.02.12.04.03.02.06.03.09.04.03,0,.06.01.09.01h.07s.03.02.04.02h.06c.08-.02.16-.04.26-.06s.19-.04.28-.06l.94-.02v6.81l-.07.07-.07.02c-.08.05-.17.09-.27.12-.1.03-.21.06-.32.09-.11.05-.23.09-.35.12-.12.03-.26.06-.4.09-.28.06-.56.12-.84.16s-.58.09-.89.12c-.28.05-.55.09-.81.13-.26.04-.52.07-.78.08-.25.03-.48.05-.7.07-.22.02-.41.02-.58.02h-1.36c-1.33,0-2.51-.18-3.56-.54-1.05-.36-1.96-.92-2.74-1.68-.76-.75-1.34-1.63-1.73-2.63-.39-1.01-.58-2.14-.58-3.4v-.05c.06-1.23.25-2.31.55-3.23Z"/><path class="cls-1" d="M353.31,330.27h9.41c-.02.08-.03.14-.05.2-.02.05-.03.11-.05.15,0,.02,0,.04-.01.06,0,.02-.01.04-.01.06-.02.03-.02.06-.02.07v.41c0,.05,0,.11.02.17,0,.03,0,.06.01.09,0,.03.02.06.04.09.02.05.03.09.04.12,0,.03.02.06.04.09l-.94-.02c-.23-.03-.47-.06-.7-.09s-.48-.05-.75-.07c-.25-.02-.5-.03-.76-.04s-.52-.01-.78-.01h-.02c-.06.02-.12.02-.18.02h-.95c-.06.02-.13.02-.2.02h-.99v5.66h2.57l2.2-.19h.94c-.02.08-.04.14-.06.2-.02.05-.04.11-.06.15-.02.06-.02.12-.02.17v.36s0,.09.01.12c0,.03.01.06.01.09.02.06.04.13.06.2.02.07.04.14.06.22l-.94-.02-2.76-.21h-2.01v6.65c.11.03.23.05.35.07.12.02.26.02.4.02.12.02.25.02.37.02h.61c.06,0,.12,0,.19-.02h.4c.31-.02.62-.03.91-.05s.59-.03.89-.05c.28-.03.54-.06.77-.08s.44-.04.63-.06l.94-.02c-.02.08-.04.15-.06.22s-.04.14-.06.22c-.02.06-.02.12-.02.19v.38c0,.06,0,.12.02.19.02.06.04.12.06.16s.04.08.06.09h-9.59v-16.03Z"/></svg>